<?xml version="1.0" standalone="no"?>
<!DOCTYPE svg PUBLIC "-//W3C//DTD SVG 20010904//EN"
 "http://www.w3.org/TR/2001/REC-SVG-20010904/DTD/svg10.dtd">
<svg version="1.0" xmlns="http://www.w3.org/2000/svg"
 width="360.000000pt" height="360.000000pt" viewBox="0 0 360.000000 360.000000"
 preserveAspectRatio="xMidYMid meet">

<g transform="translate(0.000000,360.000000) scale(0.100000,-0.100000)"
fill="#000000" stroke="none">
<path d="M829 2637 c-27 -15 -52 -38 -66 -63 l-23 -39 0 -735 0 -735 23 -40
c41 -73 153 -108 225 -71 36 19 78 65 91 99 8 19 11 264 11 748 0 782 2 757
-56 811 -58 53 -133 63 -205 25z"/>
<path d="M2615 2646 c-40 -17 -82 -67 -95 -114 -8 -25 -10 -263 -8 -759 l3
-721 31 -39 c44 -55 87 -75 156 -70 41 2 65 10 91 30 70 53 67 13 67 829 l0
733 -23 40 c-40 71 -145 105 -222 71z"/>
<path d="M415 2501 c-46 -21 -79 -54 -94 -94 -7 -19 -11 -222 -11 -609 l0
-581 25 -44 c68 -115 246 -109 304 10 21 42 21 55 21 618 0 536 -2 577 -19
614 -22 49 -48 73 -98 91 -52 18 -81 17 -128 -5z"/>
<path d="M3045 2496 c-37 -17 -80 -62 -94 -99 -7 -19 -11 -221 -11 -601 l0
-572 23 -44 c52 -105 177 -129 268 -53 60 51 59 37 59 675 l0 583 -23 40 c-41
73 -143 106 -222 71z"/>
<path d="M191 1953 c-77 -38 -111 -146 -71 -228 21 -43 92 -106 105 -93 3 3 4
80 3 171 l-3 166 -34 -16z"/>
<path d="M3370 1800 c0 -94 3 -170 8 -170 21 0 84 56 102 90 47 92 3 209 -92
243 -17 6 -18 -6 -18 -163z"/>
<path d="M1170 1800 l0 -140 633 2 632 3 0 135 0 135 -632 3 -633 2 0 -140z"/>
</g>
</svg>
